<?xml version="1.0" encoding="UTF-8" standalone="no"?>
<!-- Created with Inkscape (http://www.inkscape.org/) -->

<svg
   xmlns:dc="http://purl.org/dc/elements/1.1/"
   xmlns:cc="http://creativecommons.org/ns#"
   xmlns:rdf="http://www.w3.org/1999/02/22-rdf-syntax-ns#"
   xmlns:svg="http://www.w3.org/2000/svg"
   xmlns="http://www.w3.org/2000/svg"
   xmlns:sodipodi="http://sodipodi.sourceforge.net/DTD/sodipodi-0.dtd"
   xmlns:inkscape="http://www.inkscape.org/namespaces/inkscape"
   version="1.1"
   id="svg2"
   xml:space="preserve"
   width="793.70135"
   height="283.46399"
   viewBox="0 0 793.70135 283.46399"
   sodipodi:docname="logo-white.svg"
   inkscape:version="0.92.2 5c3e80d, 2017-08-06"><metadata
     id="metadata8"><rdf:RDF><cc:Work
         rdf:about=""><dc:format>image/svg+xml</dc:format><dc:type
           rdf:resource="http://purl.org/dc/dcmitype/StillImage" /><dc:title /></cc:Work></rdf:RDF></metadata><defs
     id="defs6"><clipPath
       clipPathUnits="userSpaceOnUse"
       id="clipPath20"><path
         d="M 0,212.598 H 595.276 V 0 H 0 Z"
         id="path18"
         inkscape:connector-curvature="0" /></clipPath></defs><sodipodi:namedview
     pagecolor="#ffffff"
     bordercolor="#666666"
     borderopacity="1"
     objecttolerance="10"
     gridtolerance="10"
     guidetolerance="10"
     inkscape:pageopacity="0"
     inkscape:pageshadow="2"
     inkscape:window-width="1440"
     inkscape:window-height="807"
     id="namedview4"
     showgrid="false"
     inkscape:zoom="0.55436468"
     inkscape:cx="72.154669"
     inkscape:cy="141.73199"
     inkscape:window-x="0"
     inkscape:window-y="1"
     inkscape:window-maximized="1"
     inkscape:current-layer="g14" /><g
     id="g10"
     inkscape:groupmode="layer"
     inkscape:label="Color, Icon, Logo Andra Matin"
     transform="matrix(1.3333333,0,0,-1.3333333,0,283.464)"><g
       id="g14"><g
         id="g16"
         clip-path="url(#clipPath20)"><g
           id="g22"
           transform="translate(178.3926,67.7617)"><path
             d="m 0,0 h 6.062 c 0,0 -0.037,5.424 -0.037,10.256 v 67.82 H -0.55 V 52.182 l -0.22,0.107 c -3.397,3.766 -8.33,5.789 -13.369,5.789 -16.989,0 -16.989,-19.662 -16.989,-29.027 0,-11.403 0.878,-29.43 16.878,-29.43 6.467,0 10.635,2.416 14.026,7.057 L 0,6.773 Z m -12.495,4.264 c -7.126,0 -12.058,6.437 -12.058,24.586 0,11.402 0,24.586 11.838,24.586 12.384,0 12.384,-17.247 12.384,-20.133 v -8.705 c 0,-11.873 -5.917,-20.334 -12.164,-20.334"
             style="fill:#ffffff;fill-opacity:1;fill-rule:evenodd;stroke:none"
             id="path24"
             inkscape:connector-curvature="0" /></g><g
           id="g26"
           transform="translate(95.7832,103.627)"><path
             d="m 0,0 c 0,12.523 6.028,16.627 11.945,16.627 7.674,0 10.191,-6.102 10.191,-12.645 v -39.714 h 6.578 V 4.32 c 0,7.315 -1.426,17.621 -15.126,17.621 C 7.67,21.941 3.184,18.609 0.01,13.953 L 0,21.861 H -6.572 V -35.732 H 0 Z"
             style="fill:#ffffff;fill-opacity:1;fill-rule:evenodd;stroke:none"
             id="path28"
             inkscape:connector-curvature="0" /></g><g
           id="g30"
           transform="translate(219.4502,125.623)"><path
             d="M 0,0 H -6.577 V -57.729 H 0 v 36.612 c 0,9.431 6.138,15.086 15.454,14.303 v 6.759 C 8.769,-0.055 2.959,-3.373 0.22,-8.703 H 0 Z"
             style="fill:#ffffff;fill-opacity:1;fill-rule:evenodd;stroke:none"
             id="path32"
             inkscape:connector-curvature="0" /></g><g
           id="g34"
           transform="translate(321.0645,104.5059)"><path
             d="m 0,0 c 0,7.328 3.184,15.748 11.51,15.748 6.464,0 8.44,-6.209 8.548,-11.754 v -40.605 h 6.578 V 0 c 0,7.328 3.178,15.748 11.503,15.748 6.47,0 8.44,-6.209 8.549,-11.754 v -40.605 h 6.579 V 5.652 c -0.331,8.989 -5.15,15.41 -14.358,15.41 -6.139,0 -10.849,-3.21 -13.597,-8.755 -1.86,5.545 -6.9,8.755 -12.602,8.755 -6.133,0 -10.519,-3.427 -13.149,-7.974 h -0.217 v 7.894 H -6.573 V -36.611 H 0 Z"
             style="fill:#ffffff;fill-opacity:1;fill-rule:evenodd;stroke:none"
             id="path36"
             inkscape:connector-curvature="0" /></g><g
           id="g38"
           transform="translate(455.9961,118.7285)"><path
             d="m 0,0 v -39.916 c 0,-6.855 2.631,-10.836 11.503,-10.836 2.085,0 4.278,0.109 6.249,0.338 v 5.748 c -1.424,-0.23 -2.956,-0.338 -5.149,-0.338 -5.262,0 -6.025,1.77 -6.025,9.176 V 1.496 H 17.752 V 6.801 H 6.578 L 6.49,19.971 0,19.943 V 5.303 Z"
             style="fill:#ffffff;fill-opacity:1;fill-rule:evenodd;stroke:none"
             id="path40"
             inkscape:connector-curvature="0" /></g><path
           d="m 505.741,125.568 h -6.585 V 67.761 h 6.585 z"
           style="fill:#ffffff;fill-opacity:1;fill-rule:evenodd;stroke:none"
           id="path42"
           inkscape:connector-curvature="0" /><g
           id="g44"
           transform="translate(539.7314,103.627)"><path
             d="m 0,0 c 0,12.523 6.032,16.627 11.949,16.627 7.672,0 10.196,-6.814 10.196,-13.359 v -39.133 h 6.571 V 4.32 c 0,7.315 -1.424,17.621 -15.126,17.621 -5.917,0 -10.189,-3.318 -13.366,-7.974 H 0 v 8.029 H -6.571 V -35.732 H 0 Z"
             style="fill:#ffffff;fill-opacity:1;fill-rule:evenodd;stroke:none"
             id="path46"
             inkscape:connector-curvature="0" /></g><g
           id="g48"
           transform="translate(426.3291,66.8027)"><path
             d="m 0,0 6.653,0.014 0.054,42.789 c 0,14.142 -11.707,14.695 -17.34,14.695 -9.717,0 -18,-4.17 -18.547,-14.803 h 7.064 c 0,6.573 4.856,9.541 10.937,9.541 8.83,0 11.259,-4.939 11.259,-13.048 v -4.819 c -11.172,0 -30.921,1.309 -30.921,-18.082 0,-9.648 5.418,-16.328 15.35,-16.328 6.848,0 11.956,2.389 15.491,7.637 z m 0.08,19.242 c 0,-7.232 -6.179,-14.019 -13.803,-14.019 -6.841,0 -10.046,5.154 -10.046,11.386 0,13.483 14.027,13.631 23.849,14.077 z"
             style="fill:#ffffff;fill-opacity:1;fill-rule:evenodd;stroke:none"
             id="path50"
             inkscape:connector-curvature="0" /></g><g
           id="g52"
           transform="translate(281.4258,68.6113)"><path
             d="m 0,0 0.047,30.67 c -9.824,-0.43 -23.852,-0.58 -23.852,-14.059 0,-6.248 3.198,-11.404 10.047,-11.404 0.432,0 0.858,0.027 1.279,0.068 V 0.121 c -0.975,-0.107 -1.987,-0.162 -3.046,-0.162 -9.938,0 -15.35,6.68 -15.35,16.326 0,19.391 19.749,18.084 30.922,18.084 v 4.819 c 0,8.109 -2.43,13.035 -11.262,13.035 -3.157,0 -5.984,-0.797 -7.972,-2.483 l -3.223,4.965 c 3.226,1.93 7.341,2.779 11.742,2.779 5.635,0 17.34,-0.541 17.34,-14.681 L 6.617,0.014 Z m -28.951,42.695 h -0.268 l 0.024,0.377 z"
             style="fill:#ffffff;fill-opacity:1;fill-rule:evenodd;stroke:none"
             id="path54"
             inkscape:connector-curvature="0" /></g><g
           id="g56"
           transform="translate(57.75,107.1895)"><path
             d="m 0,0 c 0,8.043 -2.385,12.955 -11.021,13.051 v 5.261 h 0.306 c 5.635,0 17.34,-0.552 17.34,-14.693 L 6.572,-39.158 -0.047,-39.186 0,-8.5 c -9.824,-0.434 -23.852,-0.594 -23.852,-14.074 0,-4.682 1.81,-8.758 5.615,-10.498 v -5.979 c -8.238,1.106 -12.685,7.408 -12.685,16.153 0,19.404 19.75,18.082 30.922,18.082 z"
             style="fill:#ffffff;fill-opacity:1;fill-rule:evenodd;stroke:none"
             id="path58"
             inkscape:connector-curvature="0" /></g></g></g></g></svg>